<?xml version="1.0" encoding="utf-8"?>
<!-- Generator: Adobe Illustrator 14.0.0, SVG Export Plug-In  -->
<!DOCTYPE svg PUBLIC "-//W3C//DTD SVG 1.1//EN" "http://www.w3.org/Graphics/SVG/1.1/DTD/svg11.dtd" [
	<!ENTITY ns_flows "http://ns.adobe.com/Flows/1.0/">
]>
<svg version="1.1"
	 xmlns="http://www.w3.org/2000/svg" xmlns:xlink="http://www.w3.org/1999/xlink" xmlns:a="http://ns.adobe.com/AdobeSVGViewerExtensions/3.0/"
	 x="0px" y="0px" width="90px" height="40px" viewBox="0 0 90 40" enable-background="new 0 0 90 40" xml:space="preserve">
<defs>
</defs>
<rect fill="#0070C0" width="90" height="40"/>
<polygon fill="#004F87" points="73.477,34.291 82.811,9.291 32.785,9.291 23.487,34.291 "/>
<path fill="#FFFFFF" d="M42.872,28.461c-0.96,0.576-2.1,0.865-3.418,0.865c-1.782,0-3.221-0.58-4.315-1.738
	c-1.095-1.16-1.642-2.664-1.642-4.512c0-2.059,0.59-3.713,1.77-4.961c1.18-1.25,2.754-1.875,4.724-1.875
	c1.099,0,2.067,0.203,2.905,0.611v2.051c-0.928-0.652-1.921-0.977-2.979-0.977c-1.278,0-2.326,0.457-3.143,1.373
	c-0.818,0.916-1.227,2.117-1.227,3.607c0,1.465,0.384,2.619,1.154,3.467c0.769,0.846,1.8,1.27,3.094,1.27
	c1.09,0,2.116-0.363,3.076-1.086V28.461z"/>
<path fill="#FFFFFF" d="M47.95,27.227h-0.049v7.064h-2.002V16.533h2.002v2.197h0.049c0.984-1.66,2.425-2.49,4.321-2.49
	c1.611,0,2.869,0.561,3.772,1.68c0.903,1.117,1.355,2.617,1.355,4.498c0,2.092-0.509,3.766-1.526,5.023
	c-1.018,1.256-2.409,1.885-4.175,1.885C50.078,29.326,48.829,28.627,47.95,27.227z M47.901,22.186v1.746
	c0,1.033,0.335,1.91,1.007,2.631c0.671,0.719,1.523,1.08,2.557,1.08c1.212,0,2.163-0.465,2.85-1.393
	c0.688-0.928,1.032-2.217,1.032-3.869c0-1.393-0.322-2.482-0.964-3.271c-0.643-0.789-1.514-1.184-2.612-1.184
	c-1.164,0-2.1,0.404-2.808,1.215C48.255,19.949,47.901,20.965,47.901,22.186z"/>
<path fill="#FFFFFF" d="M62.646,27.227h-0.049v7.064h-2.002V16.533h2.002v2.197h0.049c0.984-1.66,2.426-2.49,4.322-2.49
	c1.611,0,2.867,0.561,3.771,1.68c0.902,1.117,1.355,2.617,1.355,4.498c0,2.092-0.51,3.766-1.527,5.023
	c-1.018,1.256-2.408,1.885-4.174,1.885C64.775,29.326,63.525,28.627,62.646,27.227z M62.598,22.186v1.746
	c0,1.033,0.336,1.91,1.008,2.631c0.67,0.719,1.523,1.08,2.557,1.08c1.213,0,2.162-0.465,2.85-1.393
	c0.689-0.928,1.033-2.217,1.033-3.869c0-1.393-0.322-2.482-0.965-3.271s-1.514-1.184-2.613-1.184c-1.164,0-2.1,0.404-2.807,1.215
	C62.951,19.949,62.598,20.965,62.598,22.186z"/>
<path fill="#FFFFFF" d="M19.426,28.289h-2.832v-6.836c0-2.473-0.826-3.711-2.478-3.711c-0.83,0-1.53,0.359-2.1,1.074
	c-0.57,0.717-0.854,1.633-0.854,2.746v6.727H8.317V9.27h2.844v8.596h0.049c0.944-1.58,2.295-2.369,4.053-2.369
	c2.775,0,4.163,1.697,4.163,5.09V28.289z"/>
<path fill="#FFFFFF" d="M33.082,9.291l-9.342,25h-2.576l9.306-25H33.082z"/>
</svg>
