<?xml version="1.0" encoding="utf-8"?>
<!-- Generator: Adobe Illustrator 14.0.0, SVG Export Plug-In  -->
<!DOCTYPE svg PUBLIC "-//W3C//DTD SVG 1.1//EN" "http://www.w3.org/Graphics/SVG/1.1/DTD/svg11.dtd" [
	<!ENTITY ns_flows "http://ns.adobe.com/Flows/1.0/">
]>
<svg version="1.1"
	 xmlns="http://www.w3.org/2000/svg" xmlns:xlink="http://www.w3.org/1999/xlink" xmlns:a="http://ns.adobe.com/AdobeSVGViewerExtensions/3.0/"
	 x="0px" y="0px" width="48px" height="40px" viewBox="0 0 48 40" enable-background="new 0 0 48 40" xml:space="preserve">
<defs>
</defs>
<rect fill="#0070C0" width="47.994" height="40"/>
<polygon fill="#004F87" points="35.036,37.294 41.32,20.421 1,20.421 1,37.294 "/>
<path fill="#FFFFFF" d="M10.634,32.517c-0.788,0.473-1.721,0.709-2.802,0.709c-1.46,0-2.64-0.476-3.537-1.424
	C3.399,30.85,2.95,29.617,2.95,28.104c0-1.688,0.483-3.044,1.451-4.066C5.368,23.013,6.659,22.5,8.273,22.5
	c0.9,0,1.694,0.166,2.381,0.501v1.681c-0.761-0.534-1.575-0.801-2.441-0.801c-1.048,0-1.907,0.375-2.577,1.126
	c-0.67,0.751-1.005,1.735-1.005,2.956c0,1.201,0.315,2.147,0.946,2.842c0.629,0.693,1.476,1.041,2.536,1.041
	c0.894,0,1.734-0.298,2.521-0.89V32.517z"/>
<path fill="#FFFFFF" d="M14.796,31.505h-0.04v5.79h-1.641V22.74h1.641v1.801h0.04c0.807-1.36,1.987-2.041,3.542-2.041
	c1.32,0,2.351,0.46,3.091,1.377c0.74,0.916,1.111,2.146,1.111,3.687c0,1.715-0.417,3.086-1.251,4.118
	c-0.834,1.028-1.974,1.544-3.421,1.544C16.54,33.226,15.517,32.652,14.796,31.505z M14.756,27.373v1.431
	c0,0.848,0.274,1.565,0.825,2.157c0.55,0.588,1.249,0.885,2.096,0.885c0.994,0,1.772-0.381,2.336-1.141
	c0.564-0.761,0.846-1.817,0.846-3.172c0-1.142-0.264-2.035-0.79-2.682c-0.527-0.646-1.241-0.971-2.142-0.971
	c-0.954,0-1.721,0.332-2.301,0.997C15.046,25.54,14.756,26.372,14.756,27.373z"/>
<path fill="#FFFFFF" d="M26.842,31.505h-0.04v5.79h-1.641V22.74h1.641v1.801h0.04c0.807-1.36,1.988-2.041,3.543-2.041
	c1.32,0,2.35,0.46,3.091,1.377c0.74,0.916,1.111,2.146,1.111,3.687c0,1.715-0.418,3.086-1.252,4.118
	c-0.834,1.028-1.973,1.544-3.42,1.544C28.587,33.226,27.563,32.652,26.842,31.505z M26.802,27.373v1.431
	c0,0.848,0.275,1.565,0.826,2.157c0.549,0.588,1.249,0.885,2.096,0.885c0.994,0,1.772-0.381,2.336-1.141
	c0.564-0.761,0.847-1.817,0.847-3.172c0-1.142-0.264-2.035-0.791-2.682c-0.527-0.646-1.241-0.971-2.143-0.971
	c-0.954,0-1.721,0.332-2.3,0.997C27.092,25.54,26.802,26.372,26.802,27.373z"/>
<path fill="#FFFFFF" d="M11.984,18.424H9.663v-5.603c0-2.027-0.677-3.042-2.031-3.042c-0.68,0-1.254,0.295-1.721,0.881
	c-0.467,0.587-0.7,1.339-0.7,2.251v5.513H2.879V2.835h2.332v7.046h0.04c0.773-1.296,1.881-1.942,3.321-1.942
	c2.275,0,3.412,1.391,3.412,4.173V18.424z"/>
<path fill="#FFFFFF" d="M23.177,2.853l-5.801,15.571h-2.111l5.771-15.571H23.177z"/>
</svg>
